<?xml version="1.0" encoding="iso-8859-1"?>
<!-- Uploaded to: SVG Repo, www.svgrepo.com, Generator: SVG Repo Mixer Tools -->
<svg fill="#000000" version="1.1" id="Layer_1" xmlns="http://www.w3.org/2000/svg" xmlns:xlink="http://www.w3.org/1999/xlink" 
	 viewBox="0 0 512 512" xml:space="preserve">
<g>
	<g>
		<path d="M0,0v512h512V0H0z M480.653,480.653H31.347V111.108h449.306V480.653z M480.653,79.761H31.347V31.347h449.306V79.761z"/>
	</g>
</g>
<g>
	<g>
		<path d="M53.746,133.114v121.75h121.75v-121.75H53.746z M144.15,223.517H85.093v-59.057h59.057V223.517z"/>
	</g>
</g>
<g>
	<g>
		<path d="M195.125,133.114v121.75h121.751v-121.75H195.125z M285.529,223.517h-59.057v-59.057h59.057V223.517z"/>
	</g>
</g>
<g>
	<g>
		<path d="M336.502,133.114v121.75h121.75v-121.75H336.502z M426.906,223.517h-59.057v-59.057h59.057V223.517z"/>
	</g>
</g>
<g>
	<g>
		<rect x="98.952" y="277.42" width="31.347" height="31.347"/>
	</g>
</g>
<g>
	<g>
		<rect x="240.327" y="277.42" width="31.347" height="31.347"/>
	</g>
</g>
<g>
	<g>
		<rect x="381.701" y="277.42" width="31.347" height="31.347"/>
	</g>
</g>
<g>
	<g>
		<rect x="64.784" y="331.233" width="104.49" height="31.347"/>
	</g>
</g>
<g>
	<g>
		<rect x="64.784" y="379.298" width="104.49" height="31.347"/>
	</g>
</g>
<g>
	<g>
		<rect x="64.784" y="427.363" width="55.902" height="31.347"/>
	</g>
</g>
<g>
	<g>
		<rect x="203.755" y="331.233" width="104.49" height="31.347"/>
	</g>
</g>
<g>
	<g>
		<rect x="203.755" y="379.298" width="104.49" height="31.347"/>
	</g>
</g>
<g>
	<g>
		<rect x="203.755" y="427.363" width="55.902" height="31.347"/>
	</g>
</g>
<g>
	<g>
		<rect x="342.727" y="331.233" width="104.49" height="31.347"/>
	</g>
</g>
<g>
	<g>
		<rect x="342.727" y="379.298" width="104.49" height="31.347"/>
	</g>
</g>
<g>
	<g>
		<rect x="342.727" y="427.363" width="55.902" height="31.347"/>
	</g>
</g>
</svg>